<?xml version="1.0" encoding="utf-8"?>
<!-- Generator: Adobe Illustrator 26.5.0, SVG Export Plug-In . SVG Version: 6.00 Build 0)  -->
<svg version="1.1" id="_x33_Dbtn" xmlns="http://www.w3.org/2000/svg" xmlns:xlink="http://www.w3.org/1999/xlink" x="0px" y="0px"
	 viewBox="0 0 39.2 21" style="enable-background:new 0 0 39.2 21;" xml:space="preserve">
<style type="text/css">
	.st0{fill:#3C3949;}
	.st1{fill:#FFFFFF;}
</style>
<path id="fond" class="st0" d="M10.5,20.9h18.1c5.8,0,10.4-4.7,10.4-10.4v0c0-5.8-4.7-10.4-10.4-10.4H10.5C4.8,0.1,0.1,4.7,0.1,10.5
	v0C0.1,16.2,4.8,20.9,10.5,20.9z"/>
<path id="rond" class="st1" d="M10.4,3L10.4,3c4.1,0,7.5,3.4,7.5,7.5v0c0,4.1-3.4,7.5-7.5,7.5h0c-4.1,0-7.5-3.4-7.5-7.5v0
	C2.9,6.3,6.3,3,10.4,3z"/>
</svg>
